<svg width="68" height="68" viewBox="0 0 68 68" fill="none" xmlns="http://www.w3.org/2000/svg">
<g clip-path="url(#clip0)">
<path d="M47.9441 18.3315L46.6799 19.2066L47.1673 18.2331C47.2435 18.0809 47.2546 17.9005 47.198 17.7316C47.1415 17.5627 47.022 17.4191 46.8659 17.3324C46.7097 17.2456 46.5297 17.2229 46.3654 17.2692C46.2011 17.3155 46.0659 17.427 45.9897 17.5791L45.4012 18.7554L45.1599 16.7209C45.151 16.6333 45.1249 16.5472 45.0833 16.4678C45.0416 16.3883 44.9851 16.317 44.9172 16.258C44.8493 16.1991 44.7712 16.1536 44.6876 16.1243C44.6039 16.0949 44.5164 16.0823 44.43 16.0872C44.3437 16.0921 44.2603 16.1144 44.1847 16.1527C44.1091 16.1911 44.0428 16.2447 43.9897 16.3106C43.9365 16.3764 43.8977 16.4531 43.8753 16.5362C43.8529 16.6193 43.8475 16.7071 43.8593 16.7945L44.1623 19.3478C43.8678 19.9533 43.279 20.8224 42.7162 20.9684C42.6293 20.9905 42.537 20.9914 42.447 20.9711C42.3569 20.9509 42.2714 20.91 42.1973 20.8516C40.466 19.7303 39.7291 19.4548 38.7056 20.1488C38.4585 19.8888 38.2298 19.6117 38.0216 19.3199C37.6183 18.7181 37.5878 18.2131 37.5203 17.1059C37.4662 16.031 37.3533 14.9562 37.182 13.8863C37.1169 13.4948 37.0065 13.1095 36.8531 12.7385C36.9082 12.5002 36.9119 12.2496 36.8639 12.0032C36.816 11.7567 36.7174 11.5199 36.5748 11.3083C36.4321 11.0968 36.2486 10.9151 36.0361 10.7754C35.8237 10.6356 35.5872 10.5409 35.3421 10.4973C34.0967 9.20247 32.5361 8.26515 30.8393 7.79299C30.3041 7.66369 29.7534 7.68209 29.2464 7.8462C28.7394 8.01032 28.2954 8.31392 27.9623 8.7243C27.8476 8.864 27.7392 9.00163 27.6355 9.1389C27.5832 9.2054 27.5452 9.28259 27.5239 9.36598C27.5025 9.44937 27.4981 9.53728 27.5109 9.6246C27.5238 9.71192 27.5536 9.79689 27.5987 9.87457C27.6438 9.95224 27.7033 10.0211 27.7736 10.077C27.8439 10.133 27.9237 10.175 28.0083 10.2005C28.0929 10.226 28.1807 10.2346 28.2664 10.2258C28.3522 10.217 28.4342 10.1908 28.5078 10.149C28.5814 10.1071 28.645 10.0504 28.6949 9.98202C28.7896 9.85695 28.8894 9.7305 28.992 9.60458C29.1803 9.37481 29.4296 9.20431 29.7141 9.11093C29.9986 9.01756 30.3077 9.00474 30.609 9.07382C31.8147 9.41295 32.9415 10.0307 33.8972 10.8765C33.6875 11.0605 33.5289 11.2963 33.435 11.5634C33.3411 11.8305 33.3148 12.1208 33.3584 12.4093C33.402 12.6977 33.5141 12.9756 33.6852 13.2189C33.8562 13.4621 34.0809 13.6634 34.3398 13.8052C34.5771 13.9365 34.8371 14.0145 35.1009 14.0336C35.3647 14.0527 35.6256 14.0124 35.8647 13.9157C35.8709 13.9485 35.883 13.9814 35.8884 14.0144C36.0532 15.04 36.1615 16.0704 36.2128 17.1009C36.2853 18.2978 36.3332 19.088 36.9507 20.0097C37.3879 20.6038 37.8717 21.1629 38.3968 21.6811C41.075 24.4974 45.5566 29.2111 41.5579 39.8386C41.5038 39.9831 41.504 40.1457 41.5585 40.2971C42.026 41.5946 42.5171 42.9737 42.8914 44.3452C42.9146 44.43 42.9539 44.5105 43.0071 44.582C43.0602 44.6534 43.1261 44.7145 43.2011 44.7618C43.2761 44.809 43.3587 44.8415 43.4441 44.8573C43.5295 44.8732 43.6161 44.872 43.6989 44.854C43.7818 44.836 43.8592 44.8015 43.9269 44.7524C43.9945 44.7033 44.0511 44.6406 44.0932 44.5679C44.1354 44.4952 44.1624 44.4139 44.1727 44.3287C44.1829 44.2434 44.1763 44.1559 44.1531 44.0711C43.7878 42.735 43.3238 41.4064 42.8718 40.1511C43.4747 38.5478 43.9208 36.8804 44.2042 35.1715C44.389 35.0638 44.5849 34.9752 44.7892 34.9069L44.7888 34.914C44.7394 35.7135 44.9351 36.5248 45.3497 37.2392C45.7643 37.9535 46.3779 38.5368 47.1083 38.9109C47.599 39.1438 48.1383 39.2275 48.6569 39.1511C49.1754 39.0747 49.6494 38.8418 50.0177 38.4824C50.0297 38.4718 50.0405 38.4576 50.0525 38.447L51.0732 38.8758C51.2359 38.9403 51.4132 38.9395 51.567 38.8735C51.7209 38.8075 51.839 38.6816 51.8962 38.5228C51.9533 38.364 51.9449 38.1849 51.8727 38.024C51.8005 37.863 51.6704 37.733 51.5101 37.6618L50.7781 37.3545L51.4977 36.9918C51.649 36.9155 51.7602 36.7797 51.8068 36.6143C51.8533 36.4488 51.8314 36.2673 51.7459 36.1095C51.6604 35.9518 51.5183 35.8308 51.3509 35.7732C51.1834 35.7155 51.0043 35.726 50.8529 35.8023L50.5508 35.9544L50.9573 35.1414C51.0301 34.9895 51.0389 34.8109 50.9816 34.6442C50.9244 34.4775 50.8057 34.336 50.6512 34.2502C50.4967 34.1644 50.3188 34.1413 50.1558 34.1857C49.9929 34.2301 49.8579 34.3386 49.78 34.4877L49.1153 35.8161C49.0423 35.801 48.9732 35.7668 48.9153 35.7171C48.7698 35.587 48.4462 35.1315 48.5523 33.6887C48.6479 32.4338 48.3552 31.5142 47.6824 30.955C46.9612 30.3552 45.8957 30.2304 44.3678 30.5727C44.1835 28.6271 43.5769 26.7191 42.5912 24.9851C42.7477 24.9243 42.9093 24.876 43.0746 24.8404C43.9585 24.6615 44.6014 24.4716 45.1445 23.9916C45.771 23.4379 46.2647 22.4919 46.8428 20.7428L48.7309 19.4363C48.7508 19.4224 48.7698 19.4073 48.7879 19.3911C48.9093 19.2832 48.9821 19.1299 48.9913 18.9625C49.0006 18.7952 48.9457 18.6265 48.8378 18.491C48.7299 18.3555 48.5773 18.2635 48.4111 18.2339C48.2449 18.2042 48.0779 18.2391 47.9441 18.3315ZM34.6981 12.0165C34.7503 11.9072 34.845 11.8261 34.9611 11.7911C35.0773 11.7561 35.2055 11.77 35.3175 11.8298C35.4295 11.8895 35.5162 11.9903 35.5584 12.1099C35.6007 12.2294 35.5951 12.358 35.5428 12.4673C35.54 12.474 35.5371 12.4806 35.5348 12.4879C35.4778 12.5924 35.3811 12.6677 35.2652 12.6978C35.1493 12.7279 35.0235 12.7103 34.9144 12.6489C34.8053 12.5874 34.7217 12.487 34.6813 12.3689C34.6409 12.2508 34.6469 12.1243 34.6981 12.0165ZM46.8888 31.9513C47.258 32.2593 47.2874 32.9656 47.2466 33.5051C47.1327 35.0417 47.4236 36.1206 48.1152 36.7083C48.3854 36.9395 48.7127 37.0886 49.0555 37.1367L49.0934 37.2756C49.0955 37.283 49.0969 37.29 49.0994 37.2972L49.1403 37.4473C48.9524 37.6505 48.7025 37.7857 48.4253 37.8341C48.1481 37.8824 47.8572 37.8416 47.5931 37.7172C47.1237 37.4607 46.7312 37.0746 46.4651 36.6075C46.199 36.1404 46.0712 35.613 46.0976 35.0918C46.1534 34.3031 45.8314 33.9211 45.5518 33.7393C45.3732 33.6366 45.1769 33.5733 44.9767 33.5535C44.7765 33.5338 44.5773 33.5583 44.3929 33.6251C44.4402 33.0369 44.4573 32.4723 44.4475 31.9304C45.9581 31.5433 46.6107 31.719 46.8888 31.9513ZM42.7402 23.5447C42.4389 23.6105 42.146 23.7047 41.8655 23.8263C41.1958 22.8792 40.4535 21.9842 39.6461 21.1504C40.0178 20.9771 40.3663 21.1902 41.5287 21.9428C41.7624 22.1076 42.0261 22.2205 42.3009 22.2734C42.5758 22.3262 42.855 22.3177 43.1185 22.2485C44.0582 22.0043 44.7539 21.0459 45.1298 20.3965L45.4861 20.5949C44.6026 23.1671 44.0921 23.27 42.7408 23.5443L42.7402 23.5447ZM44.6856 46.4598C44.7454 46.8173 44.7942 47.17 44.8314 47.5081C44.8507 47.6832 44.8006 47.8544 44.6921 47.984C44.5835 48.1137 44.4254 48.1912 44.2526 48.1994C44.0798 48.2077 43.9064 48.1461 43.7706 48.0282C43.6347 47.9103 43.5476 47.7456 43.5283 47.5706C43.494 47.2573 43.4479 46.9307 43.393 46.5973C43.3786 46.5111 43.3811 46.4239 43.4003 46.3408C43.4195 46.2577 43.455 46.1803 43.5048 46.1129C43.5546 46.0456 43.6178 45.9897 43.6906 45.9484C43.7635 45.9071 43.8447 45.8812 43.9295 45.8722C44.0143 45.8632 44.1011 45.8713 44.185 45.896C44.2689 45.9207 44.3481 45.9616 44.4183 46.0162C44.4884 46.0708 44.548 46.1382 44.5937 46.2144C44.6395 46.2907 44.6704 46.3743 44.6848 46.4606L44.6856 46.4598ZM43.6148 49.6001C43.5747 51.0599 43.2873 52.4862 42.7651 53.8179C41.465 57.1691 37.6619 59.8736 33.0737 60.7069C32.674 60.7801 32.2619 60.7923 31.8509 60.7429L31.9293 60.7114C34.8132 59.5556 39.6407 57.6218 41.1107 54.1531C42.8521 50.0403 41.7653 42.7383 39.7115 40.4935C39.6475 40.4236 39.5705 40.367 39.4856 40.3273C36.8132 39.0826 27.9899 31.3819 31.3646 22.1907C31.3822 22.1426 31.394 22.0922 31.3998 22.0406C31.5729 20.4563 30.5545 19.534 29.5696 18.6419C28.876 18.0736 28.2768 17.3956 27.798 16.6373C28.1445 16.5619 28.4533 16.3803 28.6834 16.1167C28.9135 15.8531 29.0539 15.52 29.0862 15.1615C29.1184 14.803 29.0409 14.4361 28.8639 14.1094C28.6869 13.7828 28.4189 13.5119 28.0952 13.3326C27.8191 13.1813 27.5132 13.1029 27.2076 13.105C27.2683 12.7598 27.3602 12.4229 27.4823 12.0984C27.512 12.0191 27.5254 11.9336 27.5218 11.8469C27.5183 11.7602 27.4978 11.674 27.4616 11.5931C27.4255 11.5123 27.3743 11.4384 27.311 11.3757C27.2477 11.313 27.1735 11.2627 27.0928 11.2278C27.012 11.1928 26.9262 11.1737 26.8402 11.1718C26.7542 11.1698 26.6698 11.185 26.5918 11.2163C26.5137 11.2477 26.4435 11.2947 26.3853 11.3546C26.327 11.4145 26.2818 11.4862 26.2522 11.5655C25.9809 12.2841 25.8363 13.052 25.8246 13.8362C25.786 13.8898 25.7505 13.9457 25.7183 14.0036C25.5437 14.3544 25.4957 14.7621 25.582 15.1606C25.6683 15.5591 25.8839 15.9251 26.1939 16.1995C26.7853 17.8288 27.8564 18.8097 28.7286 19.5995C29.6641 20.4472 30.1609 20.9379 30.1032 21.7433C29.9475 22.1748 29.8238 22.6013 29.714 23.0249C27.8651 22.7444 27.3777 22.9614 26.4081 25.3225C26.3822 25.4061 26.3371 25.4812 26.2762 25.542C26.2153 25.6028 26.1403 25.6477 26.0572 25.673C25.5027 25.8427 24.4808 25.4264 23.8679 25.0765L22.5558 22.8086C22.5121 22.7301 22.4539 22.6602 22.3845 22.603C22.3151 22.5458 22.236 22.5024 22.1518 22.4753C22.0675 22.4482 21.9798 22.438 21.8938 22.4452C21.8077 22.4525 21.7251 22.477 21.6507 22.5175C21.5762 22.558 21.5115 22.6135 21.4603 22.6809C21.409 22.7483 21.3723 22.8261 21.3522 22.9099C21.3321 22.9938 21.329 23.0819 21.3432 23.1691C21.3574 23.2563 21.3885 23.3409 21.4348 23.418L22.4802 25.2256L21.2732 24.5558C21.1956 24.5109 21.1109 24.4815 21.0241 24.4693C20.9372 24.4571 20.8499 24.4623 20.7673 24.4847C20.6846 24.5072 20.6083 24.5463 20.5428 24.5999C20.4773 24.6534 20.4239 24.7203 20.3858 24.7966C20.3476 24.873 20.3255 24.9572 20.3206 25.0444C20.3158 25.1315 20.3283 25.2199 20.3575 25.3044C20.3868 25.3888 20.4321 25.4676 20.4908 25.5361C20.5495 25.6046 20.6205 25.6615 20.6995 25.7034L21.6991 26.258L20.116 26.1855C19.9423 26.1775 19.7769 26.2393 19.6563 26.3574C19.5357 26.4755 19.4698 26.6401 19.473 26.8151C19.4762 26.99 19.5482 27.161 19.6734 27.2904C19.7985 27.4197 19.9664 27.4969 20.1401 27.5049L22.4994 27.6127C22.9831 27.9717 23.4074 28.2668 23.7846 28.5047C23.936 28.6003 24.115 28.6336 24.2823 28.5974C24.4497 28.5612 24.5916 28.4584 24.6769 28.3117C24.7622 28.1649 24.7839 27.9862 24.7372 27.8149C24.6905 27.6436 24.5792 27.4936 24.4279 27.3981C24.1596 27.229 23.8646 27.0281 23.5347 26.7903L23.63 26.5995L23.6319 26.5979L23.6335 26.5964L23.7096 26.4438C24.4188 26.7878 25.5831 27.2231 26.5094 26.9406C26.7674 26.8632 27.0016 26.7281 27.1953 26.5451C27.3889 26.362 27.5373 26.1354 27.6299 25.8815C27.9873 25.0114 28.2566 24.4428 28.4984 24.2953C28.6459 24.2058 28.9392 24.2297 29.4447 24.3071C29.2765 25.3565 29.2372 26.4308 29.3278 27.5063C28.7395 27.5288 28.1622 27.6329 27.612 27.8155C27.2271 27.9823 26.8171 28.0913 26.3943 28.1393C26.2261 28.1534 26.0741 28.2332 25.9704 28.3621C25.8667 28.4909 25.8194 28.6585 25.8384 28.8297C25.8575 29.0008 25.9414 29.1621 26.0726 29.2794C26.2037 29.3966 26.3717 29.4608 26.5412 29.4583C27.0924 29.4072 27.6278 29.2729 28.1296 29.0599C28.5696 28.9174 29.0303 28.8364 29.4995 28.8188C29.861 30.7017 30.5672 32.5218 31.5812 34.184C30.5309 34.5508 29.4365 35.1403 29.1629 36.18C28.9507 36.9884 29.271 37.8986 30.1158 38.8875C31.0909 40.0287 31.1014 40.5731 31.0605 40.7541C31.0438 40.8248 31.0091 40.8888 30.9596 40.9401L29.5927 40.1818C29.5154 40.1389 29.4315 40.1112 29.3456 40.1005C29.2598 40.0897 29.1738 40.0959 29.0925 40.1189C29.0111 40.1418 28.9362 40.181 28.8718 40.2342C28.8074 40.2874 28.7548 40.3535 28.7171 40.4288C28.641 40.581 28.6301 40.7613 28.6866 40.9301C28.7147 41.0137 28.7584 41.0919 28.8154 41.1604C28.8724 41.2288 28.9415 41.2861 29.0188 41.329L29.8531 41.7922L29.5097 41.8219C29.3378 41.8366 29.1831 41.9201 29.0796 42.054C28.9762 42.1879 28.9325 42.3612 28.9581 42.5358C28.9838 42.7104 29.0767 42.872 29.2164 42.9851C29.3561 43.0981 29.5312 43.1534 29.7032 43.1386L30.5208 43.068L30.1032 43.6994C30.0569 43.7694 30.0254 43.8488 30.0105 43.9331C29.9955 44.0173 29.9974 44.1048 30.0159 44.1905C30.0345 44.2762 30.0695 44.3584 30.1188 44.4325C30.1681 44.5066 30.2309 44.5711 30.3034 44.6223C30.376 44.6735 30.4569 44.7104 30.5416 44.7309C30.6264 44.7514 30.7132 44.7551 30.7972 44.7418C30.8812 44.7286 30.9607 44.6985 31.0312 44.6534C31.1017 44.6084 31.1618 44.5491 31.2081 44.4791L31.7895 43.6C32.1878 43.6844 32.5942 43.6797 32.9793 43.5865C33.3644 43.4932 33.7188 43.3136 34.0169 43.0606C34.2098 42.8885 34.3756 42.688 34.5093 42.465C34.8842 41.7791 35.0347 40.9805 34.9406 40.1759C34.8465 39.3714 34.5123 38.5994 33.9827 37.963L33.9778 37.9575C34.1174 37.9242 34.2599 37.902 34.4043 37.8911C35.6957 39.3097 37.2021 40.5131 38.8599 41.4505C40.3967 43.3212 41.4795 49.8397 39.901 53.5699C38.6268 56.5744 34.0912 58.394 31.38 59.4794C30.6882 59.7566 30.0913 59.9974 29.67 60.2052C29.5656 60.257 29.4791 60.3377 29.4199 60.4383C29.3607 60.539 29.331 60.6559 29.3341 60.7763C29.3373 60.8968 29.373 61.0161 29.4376 61.1215C29.5022 61.2269 29.593 61.3143 29.7003 61.3742C30.845 62.0101 32.1497 62.234 33.3864 62.0066C36.2546 61.5068 38.901 60.2662 41.0743 58.4029C42.3494 57.3149 43.3459 55.9349 43.9898 54.3655C44.5648 52.9001 44.8813 51.3307 44.9257 49.7243C44.9283 49.6379 44.9139 49.5507 44.8834 49.4678C44.8528 49.3848 44.8067 49.3077 44.7477 49.2408C44.6887 49.1739 44.6179 49.1186 44.5393 49.078C44.4608 49.0374 44.3761 49.0123 44.29 49.0042C44.2039 48.996 44.1182 49.005 44.0377 49.0305C43.9571 49.056 43.8834 49.0977 43.8207 49.153C43.758 49.2083 43.7076 49.2763 43.6722 49.353C43.6369 49.4297 43.6174 49.5137 43.6148 49.6001ZM27.7606 14.7616C27.7857 14.8364 27.7925 14.9151 27.7804 14.9907C27.7682 15.0664 27.7375 15.1367 27.6909 15.1954C27.6444 15.254 27.5834 15.2993 27.5135 15.327C27.4435 15.3548 27.3667 15.3643 27.2899 15.3547C27.2131 15.345 27.1386 15.3165 27.073 15.2717C27.0075 15.2269 26.9529 15.1672 26.9141 15.0978C26.8754 15.0284 26.8536 14.9515 26.8507 14.874C26.8479 14.7964 26.8641 14.7206 26.8978 14.6532C26.9245 14.5991 26.962 14.5517 27.0081 14.5136C27.0542 14.4756 27.1079 14.4476 27.1662 14.4315C27.2244 14.4151 27.286 14.4107 27.3474 14.4186C27.4088 14.4265 27.4689 14.4465 27.5241 14.4775C27.5792 14.5079 27.6284 14.5487 27.669 14.5975C27.7096 14.6462 27.7407 14.702 27.7606 14.7616ZM32.6327 37.389C32.5161 37.6825 32.4872 38.1613 33.0104 38.7814C33.3512 39.1991 33.568 39.7013 33.6337 40.2249C33.6994 40.7485 33.611 41.2702 33.3797 41.7243C33.2385 41.9644 33.0235 42.1493 32.7647 42.253C32.5058 42.3567 32.2161 42.3741 31.9359 42.3028L31.8758 42.1525L31.8711 42.14L31.8145 41.9986C32.0711 41.785 32.251 41.4926 32.33 41.1612C32.5402 40.3183 32.1217 39.2755 31.0848 38.0621C30.7216 37.6374 30.3127 37.0369 30.4305 36.5928C30.516 36.2669 30.9282 35.7996 32.3345 35.3505C32.6739 35.8371 33.0277 36.2995 33.3902 36.7382C33.2231 36.7858 33.0697 36.8681 32.9394 36.98C32.8091 37.092 32.7048 37.2312 32.6327 37.389ZM41.4197 27.6162C41.7336 28.4416 41.9537 29.2948 42.0756 30.1588C42.0879 30.2452 42.0834 30.3322 42.0623 30.4147C42.0412 30.4972 42.0038 30.5737 41.9524 30.6397C41.901 30.7058 41.8364 30.7601 41.7625 30.7996C41.6886 30.8391 41.6068 30.8631 41.5216 30.87C41.4365 30.877 41.3498 30.8669 41.2664 30.8403C41.183 30.8136 41.1046 30.771 41.0356 30.7148C40.9667 30.6587 40.9085 30.59 40.8645 30.5128C40.8205 30.4357 40.7915 30.3515 40.7791 30.265C40.672 29.5024 40.4785 28.7492 40.2023 28.0205C40.1386 27.8538 40.1417 27.6726 40.211 27.5167C40.2802 27.3609 40.41 27.2432 40.5716 27.1896C40.7333 27.1359 40.9136 27.1507 41.0729 27.2306C41.2323 27.3105 41.3576 27.4491 41.4213 27.6158L41.4197 27.6162Z" fill="url(#paint0_linear)"/>
</g>
<defs>
<linearGradient id="paint0_linear" x1="51.9912" y1="36.8531" x2="19.2077" y2="35.8886" gradientUnits="userSpaceOnUse">
<stop stop-color="#3BA9FD"/>
<stop offset="1" stop-color="#BAE543"/>
</linearGradient>
<clipPath id="clip0">
<rect width="46.5296" height="49.6286" fill="white" transform="translate(0.134933 30.813) rotate(-41.4694)"/>
</clipPath>
</defs>
</svg>
